# xmcd
#
# Track frame offsets: 
#        150
#        18107
#        32600
#        58466
#        73173
#        93686
#        110289
#        132063
#        155461
#        173773
#
# Disc length: 2541 seconds
#
# Revision: 4
# Processed by: cddbd v1.5.2PL0 Copyright (c) Steve Scherf et al.
# Submitted via: ExactAudioCopy v1.1
#
DISCID=8109eb0a
DTITLE=Guitar Shorty - Watch Your Back
DYEAR=2004
DGENRE=Blues
TTITLE0=Old School
TTITLE1=Story Of My Life
TTITLE2=I'm Gonna Leave You
TTITLE3=What She Don't Know
TTITLE4=I've Been Working
TTITLE5=Get Busy
TTITLE6=Let My Guitar Do The Talking
TTITLE7=It Ain't The Fall That Kills You
TTITLE8=A Little Less Conversation
TTITLE9=Right Tool For The Job
EXTD=YEAR: 2004
EXTT0=
EXTT1=
EXTT2=
EXTT3=
EXTT4=
EXTT5=
EXTT6=
EXTT7=
EXTT8=
EXTT9=
PLAYORDER=
